solid STL generated by MeshLab
  facet normal  8.481243e-01 -1.819449e-02 -5.294847e-01
    outer loop
      vertex   5.099460e-02  5.238716e-03 -6.810541e-03
      vertex   3.711331e-02 -2.461720e-02 -2.801956e-02
      vertex   2.960795e-02  1.076268e-02 -4.125733e-02
    endloop
  endfacet
  facet normal  8.275223e-01  3.178291e-01 -4.628082e-01
    outer loop
      vertex   5.099460e-02  5.238716e-03 -6.810541e-03
      vertex   2.960795e-02  1.076268e-02 -4.125733e-02
      vertex   3.434236e-02  3.472208e-02 -1.633810e-02
    endloop
  endfacet
  facet normal  5.085794e-01  5.703561e-01 -6.450124e-01
    outer loop
      vertex   2.960795e-02  1.076268e-02 -4.125733e-02
      vertex   8.337547e-03  4.060441e-02 -3.164089e-02
      vertex   3.434236e-02  3.472208e-02 -1.633810e-02
    endloop
  endfacet
  facet normal  1.809884e-01  2.925029e-01 -9.389810e-01
    outer loop
      vertex   2.960795e-02  1.076268e-02 -4.125733e-02
      vertex   3.496867e-03 -6.900809e-03 -5.179260e-02
      vertex  -1.184206e-02  1.673532e-02 -4.738626e-02
    endloop
  endfacet
  facet normal  3.917782e-01  8.562681e-01 -3.366229e-01
    outer loop
      vertex   3.434236e-02  3.472208e-02 -1.633810e-02
      vertex   8.337547e-03  4.060441e-02 -3.164089e-02
      vertex   1.475371e-02  5.011356e-02  1.498928e-05
    endloop
  endfacet
  facet normal  8.926983e-02  9.487697e-01 -3.030957e-01
    outer loop
      vertex   1.475371e-02  5.011356e-02  1.498928e-05
      vertex   8.337547e-03  4.060441e-02 -3.164089e-02
      vertex  -8.763847e-03  5.009868e-02 -6.958126e-03
    endloop
  endfacet
  facet normal  1.918412e-01  4.222361e-01 -8.859535e-01
    outer loop
      vertex   8.337547e-03  4.060441e-02 -3.164089e-02
      vertex   2.960795e-02  1.076268e-02 -4.125733e-02
      vertex  -1.184206e-02  1.673532e-02 -4.738626e-02
    endloop
  endfacet
  facet normal -2.862106e-01  8.110021e-01 -5.102540e-01
    outer loop
      vertex  -8.763847e-03  5.009868e-02 -6.958126e-03
      vertex   8.337547e-03  4.060441e-02 -3.164089e-02
      vertex  -3.631637e-02  2.780198e-02 -2.694199e-02
    endloop
  endfacet
  facet normal -2.663814e-01  6.774759e-01 -6.856146e-01
    outer loop
      vertex   8.337547e-03  4.060441e-02 -3.164089e-02
      vertex  -1.184206e-02  1.673532e-02 -4.738626e-02
      vertex  -3.631637e-02  2.780198e-02 -2.694199e-02
    endloop
  endfacet
  facet normal -9.205905e-01  1.969166e-01 -3.372491e-01
    outer loop
      vertex  -5.184846e-02 -4.536819e-03 -3.426299e-03
      vertex  -3.631637e-02  2.780198e-02 -2.694199e-02
      vertex  -4.552260e-02 -1.136556e-02 -2.468127e-02
    endloop
  endfacet
  facet normal -6.114011e-01  9.838823e-02 -7.851806e-01
    outer loop
      vertex  -3.631637e-02  2.780198e-02 -2.694199e-02
      vertex  -1.184206e-02  1.673532e-02 -4.738626e-02
      vertex  -4.552260e-02 -1.136556e-02 -2.468127e-02
    endloop
  endfacet
  facet normal -4.691471e-01 -1.419647e-01 -8.716347e-01
    outer loop
      vertex  -1.184206e-02  1.673532e-02 -4.738626e-02
      vertex   3.496867e-03 -6.900809e-03 -5.179260e-02
      vertex  -4.552260e-02 -1.136556e-02 -2.468127e-02
    endloop
  endfacet
  facet normal -4.501826e-01 -2.545487e-01 -8.558858e-01
    outer loop
      vertex  -4.552260e-02 -1.136556e-02 -2.468127e-02
      vertex   3.496867e-03 -6.900809e-03 -5.179260e-02
      vertex  -2.461720e-02 -3.711331e-02 -2.801956e-02
    endloop
  endfacet
  facet normal -1.849359e-01 -9.240927e-01 -3.344420e-01
    outer loop
      vertex   4.536819e-03 -5.184846e-02 -3.426289e-03
      vertex  -2.461720e-02 -3.711331e-02 -2.801956e-02
      vertex   1.136556e-02 -4.552260e-02 -2.468127e-02
    endloop
  endfacet
  facet normal -6.070448e-02 -5.817400e-01 -8.111064e-01
    outer loop
      vertex  -2.461720e-02 -3.711331e-02 -2.801956e-02
      vertex   3.496867e-03 -6.900809e-03 -5.179260e-02
      vertex   1.136556e-02 -4.552260e-02 -2.468127e-02
    endloop
  endfacet
  facet normal  6.277115e-01 -7.778739e-01 -2.983943e-02
    outer loop
      vertex   1.136556e-02 -4.552260e-02 -2.468127e-02
      vertex   3.711331e-02 -2.461720e-02 -2.801956e-02
      vertex   4.536819e-03 -5.184846e-02 -3.426289e-03
    endloop
  endfacet
  facet normal  3.051000e-01 -5.047274e-01 -8.075669e-01
    outer loop
      vertex   1.136556e-02 -4.552260e-02 -2.468127e-02
      vertex   3.496867e-03 -6.900809e-03 -5.179260e-02
      vertex   3.711331e-02 -2.461720e-02 -2.801956e-02
    endloop
  endfacet
  facet normal -7.778739e-01 -6.277115e-01 -2.983955e-02
    outer loop
      vertex  -4.552260e-02 -1.136556e-02 -2.468127e-02
      vertex  -2.461720e-02 -3.711331e-02 -2.801956e-02
      vertex  -5.184846e-02 -4.536819e-03 -3.426299e-03
    endloop
  endfacet
  facet normal  4.864314e-01 -2.137846e-01 -8.471604e-01
    outer loop
      vertex   3.711331e-02 -2.461720e-02 -2.801956e-02
      vertex   3.496867e-03 -6.900809e-03 -5.179260e-02
      vertex   2.960795e-02  1.076268e-02 -4.125733e-02
    endloop
  endfacet
  facet normal  7.466543e-01  5.449780e-01  3.814529e-01
    outer loop
      vertex   3.434236e-02  3.472208e-02 -1.633810e-02
      vertex   1.475371e-02  5.011356e-02  1.498928e-05
      vertex   5.099460e-02  5.238716e-03 -6.810541e-03
    endloop
  endfacet
endsolid vcg
